# xmcd CD database file
#
# Track frame offsets:
#       150
#       12712
#       27615
#       40916
#       51466
#       64668
#       77417
#       93574
#       105612
#       117155
#       133864
#       147458
#       159626
#       170843
#       181289
#       195477
#       207586
#       218995
#       230893
#       245085
#       260237
#
# Disc length: 3614 seconds
#
# Revision: 1
# Processed by: cddbd v1.5.2PL0 Copyright (c) Steve Scherf et al.
# Submitted via: CDDBEditor PBVER-PBREV
#
DISCID=4f0e1c15
DTITLE=Charles Trénet - Intégrale Vol. 10 CD2 (1949-1955)
DYEAR=2011
DGENRE=Chanson
TTITLE0=Roger Lécussart et ses formations - Boum (C. Trénet)
TTITLE1=Guylaine Guy avec Grand orchestre - Les Chansons de la nuit (C. Trénet)
TTITLE2=Charles Trénet  - Orchestre - Guy Luypaerts - Les Chansons de la nuit (C. Trénet)
TTITLE3=Charles Trénet  - Orchestre - Guy Luypaerts - Ma philsophie (C. Trénet)
TTITLE4=Charles Trénet  - Orchestre - Guy Luypaerts - L'âne et le gendarme (C. Trénet)
TTITLE5=Charles Trénet  - Orchestre - Guy Luypaerts - Paie tes dettes (C. Trénet)
TTITLE6=Charles Trénet  - Orchestre - Guy Luypaerts - Quand vous entendrez, Mam'zelle (C. Trénet)
TTITLE7=Charles Trénet  - Orchestre - Guy Luypaerts - Route national sept (C. Trénet)
TTITLE8=Charles Trénet  - Orchestre - Guy Luypaerts - A la porte du garage (C. Trénet)
TTITLE9=Charles Trénet  - Orchestre - Guy Luypaerts - Moi, j'aime le Music-Hall (C. Trénet)
TTITLE10=Charles Trénet  - Orchestre - Guy Luypaerts - La java du diable (C. Trénet)
TTITLE11=Charles Trénet  - Orchestre - Guy Luypaerts - Les coupeurs de bois (C. Trénet)
TTITLE12=Virginie Morgan - Charles Trénet  - Moi, j'aime le Music-Hall (C. Trénet)
TTITLE13=Charles Trénet - Sur les jeunes et la chanson
TTITLE14=Charles Trénet - Orchestre - Roger-Roger - Du soir au lendemain (C. Trénet - G. Brumières)
TTITLE15=Charles Trénet - Orchestre - Roger-Roger - Rien qu'une chanson (C. Trénet)
TTITLE16=Charles Trénet - Orchestre - Roger-Roger - Où sont-ils donc ? (C. Trénet)
TTITLE17=Guylaine Guy avec Grand orchestre - Où sont-ils donc ? (C. Trénet)
TTITLE18=Guylaine Guy avec Grand orchestre - Liberté de Paris (C. Trénet)
TTITLE19=Guylaine Guy avec Grand orchestre - Rien qu'une chanson (C. Trénet)
TTITLE20=Charles Trénet - Pierre Speirs - Rome (C. Trénet)
EXTD=
EXTT0=
EXTT1=
EXTT2=
EXTT3=
EXTT4=
EXTT5=
EXTT6=
EXTT7=
EXTT8=
EXTT9=
EXTT10=
EXTT11=
EXTT12=
EXTT13=
EXTT14=
EXTT15=
EXTT16=
EXTT17=
EXTT18=
EXTT19=
EXTT20=
PLAYORDER=
